#!OML:ASF F:\VICON\USERDATA\INSTALL\rory3\rory3.ASF
:FULLY-SPECIFIED
:DEGREES
1609
root 2.64623 9.92175 -5.50369 -195.483 218.417 -177.865
lowerback 30.9005 2.50762 -0.0673063
upperback 12.5911 2.81773 3.38809
thorax -2.84698 1.05653 2.89922
lowerneck -23.4167 -0.902947 -7.62262
upperneck 8.57119 0.798587 1.9524
head 6.30817 0.278505 1.93953
rclavicle -1.55052e-014 5.725e-014
rhumerus -33.997 31.756 -80.1599
rradius 106.252
rwrist 47.5577
rhand -38.8537 17.0763
rfingers 7.12502
rthumb -11.8626 -12.5677
lclavicle -1.55052e-014 5.725e-014
lhumerus -30.2632 -26.2094 91.8366
lradius 89.321
lwrist -20.564
lhand -44.7855 10.935
lfingers 7.12502
lthumb -17.5773 40.1604
rfemur -78.5772 -12.0719 16.9584
rtibia 108.497
rfoot -8.47694 9.15511
rtoes -2.62064
lfemur -76.1039 19.9279 -17.9931
ltibia 110.513
lfoot -15.5018 -13.0335
ltoes -9.41013
1610
root 2.64909 9.92272 -5.50803 -195.631 218.292 -177.799
lowerback 31.0262 2.5011 -0.154007
upperback 12.6008 2.78522 3.38357
thorax -2.89331 1.03718 2.95294
lowerneck -23.3793 -1.0091 -7.66862
upperneck 8.58751 0.668449 1.94795
head 6.31406 0.212989 1.93006
rclavicle 1.86858e-014 3.18055e-015
rhumerus -33.9443 31.7681 -80.1503
rradius 106.186
rwrist 47.5996
rhand -38.7788 17.0655
rfingers 7.12502
rthumb -11.7904 -12.5826
lclavicle 1.86858e-014 3.18055e-015
lhumerus -30.2662 -26.1532 91.7734
lradius 89.3325
lwrist -20.4406
lhand -44.6404 10.5718
lfingers 7.12502
lthumb -17.4376 39.8097
rfemur -78.4457 -12.1346 16.8121
rtibia 108.489
rfoot -8.45894 9.16983
rtoes -2.70276
lfemur -75.9933 19.9015 -18.0862
ltibia 110.463
lfoot -15.437 -13.1495
ltoes -9.37311
1611
root 2.65262 9.92674 -5.50937 -195.696 218.259 -177.864
lowerback 31.1391 2.50082 -0.0611907
upperback 12.5923 2.81217 3.39713
thorax -2.95076 1.05288 2.90384
lowerneck -23.3445 -1.10797 -7.74132
upperneck 8.65746 0.55009 1.99263
head 6.33716 0.155721 1.94279
rclavicle 0 -4.29375e-014
rhumerus -34.0029 31.7176 -80.1749
rradius 106.2
rwrist 47.5169
rhand -38.6236 17.1621
rfingers 7.12502
rthumb -11.6407 -12.4945
lclavicle 0 -4.29375e-014
lhumerus -30.2973 -26.1495 91.7894
lradius 89.3632
lwrist -20.4578
lhand -44.5325 9.84649
lfingers 7.12502
lthumb -17.3338 39.0935
rfemur -78.2792 -12.1004 16.8032
rtibia 108.451
rfoot -8.55407 9.06912
rtoes -3.34501
lfemur -75.8705 19.9424 -18.0554
ltibia 110.432
lfoot -15.4942 -13.1889
ltoes -10.1747
1612
root 2.65389 9.92625 -5.50942 -195.73 218.199 -177.788
lowerback 31.0464 2.48735 -0.0992299
upperback 12.6056 2.78167 3.34378
thorax -2.89218 1.0389 2.87798
lowerneck -23.3044 -1.11221 -7.6103
upperneck 8.62529 0.514688 1.89783
head 6.32283 0.135218 1.88643
rclavicle -3.02153e-014 3.18055e-015
rhumerus -33.9673 31.7222 -80.2654
rradius 106.152
rwrist 47.5205
rhand -38.6181 17.1691
rfingers 7.12502
rthumb -11.6354 -12.4879
lclavicle -3.02153e-014 3.18055e-015
lhumerus -30.248 -26.1048 91.6731
lradius 89.3499
lwrist -20.5071
lhand -44.5572 9.7027
lfingers 7.12502
lthumb -17.3575 38.9477
rfemur -78.3074 -12.1179 16.6892
rtibia 108.458
rfoot -8.51364 9.0786
rtoes -3.11985
lfemur -75.9011 19.9431 -18.1768
ltibia 110.424
lfoot -15.5031 -13.2231
ltoes -10.499
1613
root 2.65623 9.92502 -5.51014 -195.701 218.121 -177.751
lowerback 30.9311 2.47321 -0.0503737
upperback 12.5956 2.77969 3.33578
thorax -2.85002 1.0416 2.84315
lowerneck -23.2117 -1.18996 -7.74968
upperneck 8.60039 0.438655 1.94003
head 6.3038 0.0976077 1.91292
rclavicle 2.5842e-014 3.18055e-015
rhumerus -33.9213 31.7457 -80.2412
rradius 106.106
rwrist 47.5276
rhand -38.822 17.0366
rfingers 7.12502
rthumb -11.832 -12.6091
lclavicle 2.5842e-014 3.18055e-015
lhumerus -30.2039 -26.2107 91.6772
lradius 89.3656
lwrist -20.3811
lhand -44.2677 9.92354
lfingers 7.12502
lthumb -17.0789 39.1928
rfemur -78.3625 -12.1291 16.6122
rtibia 108.459
rfoot -8.50269 9.00446
rtoes -2.51701
lfemur -75.9956 19.9074 -18.2906
ltibia 110.423
lfoot -15.4846 -13.2302
ltoes -10.8635
1614
root 2.65939 9.92322 -5.51468 -195.645 218.013 -177.902
lowerback 30.9356 2.39153 0.116888
upperback 12.5964 2.7247 3.35605
thorax -2.8416 1.0196 2.78714
lowerneck -23.0851 -1.23381 -7.98967
upperneck 8.62478 0.408629 2.17047
head 6.29279 0.094945 2.02295
rclavicle 1.03368e-014 -1.11319e-014
rhumerus -33.8825 31.7988 -80.308
rradius 106.023
rwrist 47.5345
rhand -38.952 16.9945
rfingers 7.12502
rthumb -11.9574 -12.644
lclavicle 1.03368e-014 -1.11319e-014
lhumerus -30.1735 -26.1355 91.6377
lradius 89.3068
lwrist -20.6053
lhand -44.3118 10.4311
lfingers 7.12502
lthumb -17.1214 39.6967
rfemur -78.2934 -12.1782 16.6742
rtibia 108.445
rfoot -8.48635 8.91664
rtoes -1.48526
lfemur -76.0364 19.8371 -18.2079
ltibia 110.412
lfoot -15.3403 -13.3544
ltoes -10.6646
1615
root 2.66334 9.92621 -5.51867 -195.683 217.959 -178.029
lowerback 31.0456 2.34692 0.266438
upperback 12.5862 2.71176 3.37048
thorax -2.89518 1.01738 2.71945
lowerneck -22.9152 -1.25691 -8.07283
upperneck 8.61396 0.375932 2.25292
head 6.26453 0.0836183 2.05886
rclavicle -4.85035e-014 6.36111e-015
rhumerus -33.9102 31.8212 -80.3921
rradius 105.95
rwrist 47.6321
rhand -38.9119 16.9252
rfingers 7.12502
rthumb -11.9187 -12.7156
lclavicle -4.85035e-014 6.36111e-015
lhumerus -30.2057 -26.0832 91.6377
lradius 89.2348
lwrist -20.6989
lhand -44.199 10.2457
lfingers 7.12502
lthumb -17.0127 39.5207
rfemur -78.1147 -12.1718 16.6922
rtibia 108.429
rfoot -8.59316 8.86094
rtoes -2.46262
lfemur -75.8968 19.8102 -18.0654
ltibia 110.374
lfoot -15.2018 -13.5663
ltoes -9.93121
1616
root 2.66494 9.92687 -5.52002 -195.787 217.915 -178.076
lowerback 31.1043 2.30865 0.414776
upperback 12.621 2.70111 3.3543
thorax -2.87331 1.01634 2.61921
lowerneck -22.8512 -1.2972 -8.06163
upperneck 8.64809 0.321144 2.20025
head 6.26892 0.0518324 2.03348
rclavicle -4.53229e-014 2.54444e-014
rhumerus -33.9659 31.7887 -80.4195
rradius 105.977
rwrist 47.6721
rhand -38.8873 16.7124
rfingers 7.12502
rthumb -11.8949 -12.9297
lclavicle -4.53229e-014 2.54444e-014
lhumerus -30.2306 -26.0917 91.5743
lradius 89.2234
lwrist -20.6953
lhand -44.2245 9.98225
lfingers 7.12502
lthumb -17.0373 39.2551
rfemur -77.9516 -12.171 16.6557
rtibia 108.428
rfoot -8.65268 8.80976
rtoes -3.19048
lfemur -75.7534 19.8503 -17.9986
ltibia 110.346
lfoot -15.0723 -13.7578
ltoes -8.78658
1617
root 2.66474 9.92569 -5.52012 -195.812 217.85 -178.076
lowerback 31.0841 2.30495 0.448864
upperback 12.6121 2.70965 3.38615
thorax -2.87492 1.02156 2.63235
lowerneck -22.8485 -1.31447 -8.0398
upperneck 8.79388 0.313473 2.05953
head 6.31711 0.0328725 1.98383
rclavicle -5.40694e-014 1.43125e-014
rhumerus -34.0565 31.8112 -80.4092
rradius 106.014
rwrist 47.549
rhand -38.8156 16.733
rfingers 7.12502
rthumb -11.8259 -12.9131
lclavicle -5.40694e-014 1.43125e-014
lhumerus -30.2752 -26.0765 91.6007
lradius 89.1978
lwrist -20.7054
lhand -44.2913 10.2908
lfingers 7.12502
lthumb -17.1016 39.5581
rfemur -77.912 -12.1924 16.596
rtibia 108.439
rfoot -8.67691 8.79108
rtoes -3.17452
lfemur -75.7614 19.8713 -18.0155
ltibia 110.331
lfoot -14.9527 -13.9451
ltoes -8.07839
